<svg width="28" height="28" viewBox="0 0 28 28" fill="none" xmlns="http://www.w3.org/2000/svg">
<path fill-rule="evenodd" clip-rule="evenodd" d="M6.28823 11.8126L12.9174 5.18346L13.7423 6.00842L7.11318 12.6375L6.28823 11.8126Z" fill="#7B7B7B"/>
<path fill-rule="evenodd" clip-rule="evenodd" d="M8.48805 14.0123L15.1172 7.38317L15.9421 8.20813L9.31301 14.8373L8.48805 14.0123Z" fill="#7B7B7B"/>
<path fill-rule="evenodd" clip-rule="evenodd" d="M13.1629 18.6871L19.792 12.058L20.6169 12.8829L13.9878 19.5121L13.1629 18.6871Z" fill="#7B7B7B"/>
<path fill-rule="evenodd" clip-rule="evenodd" d="M15.3627 20.8869L21.9918 14.2578L22.8168 15.0828L16.1876 21.7119L15.3627 20.8869Z" fill="#7B7B7B"/>
<path fill-rule="evenodd" clip-rule="evenodd" d="M15.3627 20.887C13.0745 23.1753 9.37281 23.1835 7.09475 20.9055C4.81669 18.6274 4.82494 14.9257 7.11317 12.6375L6.28821 11.8125C3.54233 14.5584 3.53244 19.0004 6.26611 21.7341C8.99978 24.4678 13.4418 24.4579 16.1877 21.712L15.3627 20.887Z" fill="#7B7B7B"/>
<path fill-rule="evenodd" clip-rule="evenodd" d="M19.7921 12.058L20.617 12.883C22.7527 10.7473 22.7604 7.2924 20.6342 5.16621C18.508 3.04002 15.0531 3.04772 12.9174 5.1834L13.7424 6.00835C15.4204 4.33032 18.135 4.32427 19.8056 5.99485C21.4762 7.66543 21.4701 10.38 19.7921 12.058Z" fill="#7B7B7B"/>
<path fill-rule="evenodd" clip-rule="evenodd" d="M8.48828 14.0126C6.9628 15.5381 6.9573 18.0059 8.47601 19.5246C9.99471 21.0433 12.4625 21.0378 13.988 19.5123L13.163 18.6873C12.0952 19.7552 10.3677 19.759 9.30465 18.6959C8.24155 17.6328 8.2454 15.9054 9.31324 14.8375L8.48828 14.0126Z" fill="#7B7B7B"/>
</svg>
